PathFileType	4	(X/Y/Z)	C:/Users/opensim2020/Desktop/walking_exp_matlab/subject06_walking13_straight_03_cyclic.trc	
DataRate	CameraRate	NumFrames	NumMarkers	Units	OrigDataRate	OrigDataStartFrame	OrigNumFrames	
100.00	100.00	7	50	mm	100.00	2277	111	
Frame#	Time	LFHD			RFHD			LBHD			RBHD			C7			T10			CLAV			STRN			RBAK			LSHO			LUPA			LELB			LFRM			LWRA			LWRB			LFIN			RSHO			RUPA			RELB			RFRM			RWRA			RWRB			RFIN			LASI			RASI			LPSI			RPSI			LTHI			LKNE			LTIB			LANK			LHEE			LTOE			RTHI			RKNE			RTIB			RANK			RHEE			RTOE			*39			*40			*41			*42			*43			*44			*45			*46			*47			*48			*49			
		X1	Y1	Z1	X2	Y2	Z2	X3	Y3	Z3	X4	Y4	Z4	X5	Y5	Z5	X6	Y6	Z6	X7	Y7	Z7	X8	Y8	Z8	X9	Y9	Z9	X10	Y10	Z10	X11	Y11	Z11	X12	Y12	Z12	X13	Y13	Z13	X14	Y14	Z14	X15	Y15	Z15	X16	Y16	Z16	X17	Y17	Z17	X18	Y18	Z18	X19	Y19	Z19	X20	Y20	Z20	X21	Y21	Z21	X22	Y22	Z22	X23	Y23	Z23	X24	Y24	Z24	X25	Y25	Z25	X26	Y26	Z26	X27	Y27	Z27	X28	Y28	Z28	X29	Y29	Z29	X30	Y30	Z30	X31	Y31	Z31	X32	Y32	Z32	X33	Y33	Z33	X34	Y34	Z34	X35	Y35	Z35	X36	Y36	Z36	X37	Y37	Z37	X38	Y38	Z38	X39	Y39	Z39	X40	Y40	Z40	X41	Y41	Z41	X42	Y42	Z42	X43	Y43	Z43	X44	Y44	Z44	X45	Y45	Z45	X46	Y46	Z46	X47	Y47	Z47	X48	Y48	Z48	X49	Y49	Z49	X50	Y50	Z50	

70	0.690	-1075.79614	229.28381	1657.61572	-944.80951	214.82541	1648.22266	-1090.61743	93.92531	1613.65198	-962.05273	81.18241	1608.52136	-1035.13159	79.66268	1450.77612	-1025.69287	45.14562	1120.09692	-1022.55548	188.82115	1373.18896	-1025.67969	232.36502	1200.53552	-963.53125	-2.58602	1277.40881	-1189.82544	152.17245	1405.70850	-1264.89404	140.32721	1204.34265	-1279.60693	123.55723	1092.95093	-1305.54114	141.59076	944.31989	-1265.25818	198.38203	826.90674	-1304.85901	138.10849	825.26135	-1304.75269	174.64824	741.72333	-867.78784	124.06844	1402.47278	-782.38177	103.45129	1201.40466	-763.94952	137.07314	1083.75342	-743.36749	181.12695	972.41418	-768.75592	277.46747	855.51245	-731.78210	223.27669	841.99567	-724.31799	280.60007	781.36041	-1127.67395	232.97141	971.43274	-909.10553	218.84785	964.22015	-1111.15039	73.34885	991.61102	-943.98346	68.70229	981.63177	-1196.59583	186.84645	654.38342	-1172.96289	195.56813	490.68002	-1156.75488	167.99251	234.20940	-1107.75635	171.00124	63.26720	-1061.22644	130.81331	49.66658	-1100.97144	316.11249	36.70643	-847.75800	209.31804	628.12653	-855.16931	247.27664	506.40778	-873.15204	64.73177	337.71335	-925.75488	-81.91933	231.50546	-975.90509	-117.69438	247.42986	-917.46698	-33.34134	82.67834	-1027.85791	126.76775	1704.29736																														 
71	0.700	-1075.62622	239.79935	1658.19922	-944.69952	225.10080	1648.51550	-1090.75208	104.25815	1614.68433	-962.15796	91.42789	1609.20996	-1035.67432	89.60378	1451.51550	-1026.38257	55.33717	1120.80566	-1023.01208	198.75143	1373.84631	-1026.33289	242.27548	1201.20264	-964.35620	7.49964	1277.97461	-1190.30396	162.18279	1406.32043	-1265.74377	154.57069	1204.64380	-1281.32190	140.80632	1092.97656	-1307.18921	162.88272	945.02795	-1266.91699	220.76822	828.47968	-1307.26892	161.94986	825.88013	-1308.19702	201.43542	744.00806	-868.28662	133.92894	1403.09448	-783.72314	111.12730	1201.88245	-765.68170	143.23038	1083.71167	-745.20886	184.70618	971.25702	-770.30817	278.00427	851.76593	-733.44885	223.24869	839.70032	-725.92010	278.79715	777.47833	-1128.64758	242.76991	971.61011	-909.84613	229.41335	965.40509	-1111.36938	83.33444	992.16315	-944.01392	78.78132	982.73120	-1196.43481	194.00670	654.39746	-1172.85364	199.92152	490.54324	-1156.34485	170.24121	234.40233	-1107.42029	171.31482	63.36605	-1061.27197	130.63789	49.98711	-1101.00452	316.27985	36.64075	-848.18707	225.28145	630.48932	-856.04919	266.03452	509.87222	-873.29645	86.24378	338.49899	-925.92346	-58.51246	228.63159	-975.74652	-95.33128	243.40712	-917.55957	-4.49198	82.36579	-1027.68579	137.28004	1705.07776																														 
72	0.710	-1075.43665	250.34273	1658.77490	-944.48895	235.31525	1648.78967	-1090.87354	114.65273	1615.64441	-962.38568	101.65096	1609.78076	-1036.20862	99.65128	1452.09180	-1027.00037	65.49059	1121.50452	-1023.53064	208.70790	1374.43677	-1026.99939	252.13986	1201.72400	-964.90503	17.53820	1278.61108	-1190.75928	172.13391	1406.91443	-1266.51782	168.60106	1205.10229	-1282.52173	157.87589	1093.33301	-1308.90515	183.84210	946.11084	-1268.85193	244.38260	830.91315	-1309.49170	185.94130	826.92133	-1311.46289	228.35408	746.73029	-868.81488	143.80933	1403.72827	-784.46063	119.25497	1202.36804	-767.29095	149.13045	1083.67188	-746.95807	187.98033	970.20905	-771.91730	278.17319	848.09686	-735.37213	223.07544	837.44489	-727.57452	276.70026	773.74207	-1129.60254	252.59961	971.73474	-910.69135	239.91159	966.54181	-1111.58069	93.18504	992.63293	-944.28821	89.63521	983.61530	-1196.15271	201.28772	654.17694	-1172.60059	204.79839	490.35779	-1155.71667	172.20511	234.61189	-1107.00085	171.54556	63.57016	-1060.89001	130.82610	50.19639	-1100.98181	316.45499	36.58475	-848.74945	241.11642	632.88800	-857.10632	284.34244	513.26874	-873.77386	108.24101	337.73648	-925.99982	-34.62386	224.71796	-975.64703	-72.64785	238.02269	-917.71667	25.62133	81.45649	-1027.47009	147.83098	1705.72839																														 
73	0.720	-1075.17773	260.82162	1659.28662	-944.28217	245.69398	1648.86816	-1090.96350	125.12064	1616.54480	-962.51123	111.81388	1610.25427	-1036.69568	109.74965	1452.52515	-1027.56519	75.68778	1122.01135	-1024.09009	218.70013	1374.93250	-1027.70007	262.02951	1202.16846	-965.38177	27.65199	1279.12781	-1191.14380	181.94138	1407.52820	-1267.30237	182.49397	1205.67407	-1283.81970	174.72163	1093.83264	-1310.52222	204.70303	947.42438	-1270.87000	267.99329	833.88324	-1311.52112	210.03769	828.36017	-1314.56592	255.19167	749.96344	-869.26361	153.73230	1404.22156	-785.41058	126.95650	1202.85486	-768.85522	154.88165	1083.59766	-748.65405	191.04926	969.15729	-773.57025	278.01852	844.49591	-736.98523	222.73621	835.50165	-729.24097	274.67307	770.27655	-1130.71790	262.46381	971.81512	-911.24298	250.35693	967.43207	-1111.85229	103.15898	992.94757	-944.40491	100.05242	984.59784	-1195.99988	207.96614	653.87665	-1172.05261	209.23738	489.99380	-1154.89111	173.87051	234.81395	-1106.46606	171.74794	63.71494	-1060.45142	130.86177	50.41170	-1100.99719	316.63132	36.54736	-849.25299	256.81430	635.17383	-858.31696	302.16516	516.50226	-874.29138	130.17712	336.29678	-926.01190	-10.15891	219.62126	-975.39380	-49.28940	231.17598	-918.11047	56.41097	79.75882	-1027.17517	158.34750	1706.28418																														 
74	0.730	-1074.74390	271.29041	1659.71545	-944.03107	255.87155	1648.86157	-1091.06030	135.52742	1617.30164	-962.60846	121.94917	1610.64502	-1037.14124	119.70985	1452.85791	-1028.17908	85.84486	1122.41235	-1024.60132	228.75488	1375.32446	-1028.40991	272.04477	1202.49829	-965.83954	37.75489	1279.59607	-1191.48315	191.86618	1408.09265	-1267.95532	196.11839	1206.37634	-1284.91650	191.28577	1094.43005	-1311.97180	225.36298	949.02216	-1272.42688	291.67975	837.00049	-1313.24731	234.31625	830.13458	-1317.58582	282.08643	753.83899	-869.76440	163.73326	1404.57190	-786.20734	134.90465	1203.23975	-770.07947	160.34894	1083.48694	-750.18549	193.99414	968.11682	-774.95374	278.02817	841.16010	-738.33618	222.24669	833.76263	-730.90979	272.24930	766.74078	-1131.44275	272.06616	971.70880	-911.90021	260.69333	968.23468	-1112.09583	112.97202	993.20813	-944.57202	110.45287	985.50037	-1195.70410	214.73361	653.89185	-1171.60852	213.84425	489.71298	-1154.18909	175.68112	234.99915	-1105.91821	171.96971	63.85998	-1059.88086	130.95294	50.54723	-1100.93481	316.77966	36.44626	-849.76904	272.13510	637.38184	-859.68408	319.51419	519.52289	-874.58020	151.93512	334.42572	-925.85498	15.07696	213.28326	-975.14240	-25.40556	223.00507	-918.29053	88.29991	77.36732	-1026.90063	168.85913	1706.82910																														 
75	0.740	-1074.47021	281.82874	1659.98108	-943.72382	266.09613	1648.76294	-1091.13354	146.00671	1617.95117	-962.74646	132.09785	1610.90320	-1037.51440	129.83742	1453.19568	-1028.82690	96.00124	1122.75842	-1025.03809	238.72606	1375.61609	-1029.09338	281.96494	1202.72729	-966.20856	47.79688	1280.05652	-1191.84058	201.73405	1408.69312	-1268.58472	209.58492	1207.12402	-1285.87915	207.65376	1095.14160	-1313.31201	245.81639	950.85974	-1274.05872	315.37958	840.70551	-1314.92078	258.21277	832.38135	-1319.93005	308.68353	757.84070	-870.14441	173.84427	1404.78711	-786.97198	142.76740	1203.53149	-771.56134	166.29744	1083.24304	-751.62598	196.96385	967.05670	-776.22498	278.04465	837.93182	-739.98517	221.91762	831.87939	-732.60315	269.91412	763.40588	-1132.30713	281.75677	971.54907	-912.59967	271.07019	968.90417	-1112.34924	122.78893	993.33124	-944.68408	120.86121	986.31635	-1195.21094	221.74458	653.63965	-1171.08118	218.78719	489.40515	-1153.43176	177.63667	235.17230	-1105.52417	171.97556	64.06984	-1059.38196	130.85767	50.67641	-1100.89111	316.96054	36.37120	-850.33777	287.22351	639.32397	-861.21875	336.38461	522.34985	-875.65808	174.17836	331.56628	-925.83783	40.86016	206.22188	-974.91528	-0.60115	213.59055	-918.45917	121.89057	75.35575	-1026.58167	179.29013	1707.14502																														 
76	0.750	-1074.09631	292.31265	1660.27234	-943.43060	276.37051	1648.61987	-1091.19629	156.47054	1618.42554	-962.84784	142.32500	1610.99731	-1037.80774	139.95685	1453.41162	-1029.59814	106.09058	1122.97595	-1025.38000	248.81645	1375.77991	-1029.74426	291.89343	1202.83337	-966.64478	57.88293	1280.34546	-1192.09265	211.62080	1409.15149	-1269.15808	222.78380	1207.90991	-1286.75305	223.74236	1095.92761	-1314.49988	266.00226	952.86871	-1275.57666	339.09769	844.90759	-1316.24146	282.02481	834.82196	-1322.23193	335.13864	762.42865	-870.44757	183.94371	1404.85522	-787.50354	150.91385	1203.65320	-772.77832	172.09262	1082.92590	-752.89435	199.98674	966.02753	-777.34058	278.03497	834.78809	-741.24121	221.56480	830.24829	-734.16052	267.59183	760.17749	-1133.42969	291.89194	971.35541	-913.31726	281.52057	969.42548	-1112.53760	132.51039	993.32458	-944.75830	131.22739	987.06531	-1195.02441	228.53993	653.16840	-1170.55029	224.09981	489.05438	-1152.85547	180.06665	235.33022	-1104.83533	172.33258	64.19231	-1058.90063	131.27849	51.07378	-1100.87439	317.18048	36.24176	-850.93683	301.63138	641.14789	-862.88074	352.75427	524.97919	-876.55975	196.10945	328.37198	-925.92242	67.31055	198.04802	-974.74664	24.95886	203.14595	-918.67480	155.52150	72.35680	-1026.29468	189.77362	1707.32056																														 
